<svg width="8" height="26" viewBox="0 0 8 26" fill="none" xmlns="http://www.w3.org/2000/svg">
<path d="M7.97009 4.66808C7.97009 3.60738 7.53645 2.56205 6.80374 1.8088C6.07103 1.05554 5.03925 0.609741 4.02243 0.609741C3.00561 0.609741 1.97383 0.994054 1.16636 1.8088C0.433645 2.56205 0 3.62275 0 4.66808V17.1044L3.30467 19.5179V25.3902H4.69533V19.5179L8 17.1044V4.66808H7.97009ZM6.57944 11.6011L4.68037 13.5534V11.7394L6.57944 9.78713V11.6011ZM1.45047 9.78713L3.34953 11.7394V13.5534L1.45047 11.6011V9.78713ZM6.57944 7.75796L4.00748 10.402L1.43551 7.69647V5.88251L4.00748 8.52658L6.57944 5.88251V7.75796ZM4.00748 2.02401C4.59065 2.02401 5.11402 2.2546 5.54766 2.54668C5.98131 2.93099 6.35514 3.37679 6.50467 3.97632L4.00748 6.54353L1.51028 3.97632C1.65981 3.37679 1.94393 2.91562 2.39252 2.54668C2.91589 2.17774 3.4243 1.96252 4.00748 2.02401ZM1.45047 16.3512V13.6303L3.34953 15.5826V17.7808L1.45047 16.3512ZM4.66542 17.704V15.5211L6.56449 13.5688V16.2743L4.66542 17.704Z" fill="white"/>
</svg>
