<svg width="97" height="133" viewBox="0 0 97 133" fill="none" xmlns="http://www.w3.org/2000/svg">
<path fill-rule="evenodd" clip-rule="evenodd" d="M90.0369 17.4611C91.2943 30.1788 86.0877 44.5553 77.3725 57.7217C64.3485 77.3923 43.5114 94.3612 25.0218 99.0837C24.6396 99.1763 24.2507 98.9447 24.155 98.5687C24.0563 98.1835 24.2849 97.8006 24.6701 97.7019C42.8724 93.0504 63.3612 76.3054 76.1822 56.931C84.7023 44.0649 89.8497 30.0332 88.6149 17.6018C88.5743 17.2073 88.861 16.861 89.2555 16.8204C89.6409 16.7829 89.9963 17.0666 90.0369 17.4611Z" fill="#FFE1B9" fill-opacity="0.6"/>
<path fill-rule="evenodd" clip-rule="evenodd" d="M5.55336 110.67C16.1237 107.386 25.0715 103.434 36.8102 104.345C37.2048 104.38 37.5023 104.719 37.4664 105.114C37.4397 105.506 37.0947 105.8 36.7062 105.767C23.7897 104.767 14.3119 109.785 2.21233 113.148C1.55812 113.327 1.30329 112.887 1.25106 112.777C1.17119 112.615 1.09714 112.334 1.32894 112.022C1.37469 111.96 1.48161 111.853 1.65263 111.724C1.98553 111.485 2.70338 111.055 3.00572 110.831C3.87303 110.178 4.71888 109.506 5.58618 108.853C8.06595 106.985 10.5182 105.095 12.8293 103.029C21.4876 95.311 28.6165 89.0558 29.5882 77.0876C29.6179 76.6899 29.96 76.4016 30.3577 76.4313C30.7462 76.4642 31.0405 76.8092 31.0077 77.1978C30.0064 89.5789 22.7312 96.1128 13.7798 104.097C11.4351 106.185 8.95236 108.105 6.44816 109.992C6.14582 110.216 5.84958 110.443 5.55336 110.67Z" fill="#FFE1B9" fill-opacity="0.6"/>
</svg>
