<svg width="42" height="44" viewBox="0 0 42 44" fill="none" xmlns="http://www.w3.org/2000/svg">
<path d="M16.7994 24.9298H16.8002C16.8009 24.9298 16.8016 24.9297 16.8023 24.9297H26.3633C26.5987 24.9297 26.8056 24.7562 26.8703 24.5047L28.9797 16.3016C29.0252 16.1248 28.9933 15.9346 28.8937 15.7878C28.794 15.6411 28.6382 15.5547 28.4727 15.5547H15.5832L15.2063 13.6698C15.1526 13.4017 14.9386 13.2109 14.6914 13.2109H11.5273C11.2361 13.2109 11 13.4732 11 13.7969C11 14.1205 11.2361 14.3828 11.5273 14.3828H14.2684C14.3352 14.7168 16.0724 23.403 16.1724 23.9028C15.6119 24.1735 15.2188 24.7943 15.2188 25.5156C15.2188 26.4849 15.9285 27.2734 16.8008 27.2734H26.3633C26.6546 27.2734 26.8907 27.0111 26.8907 26.6875C26.8907 26.3639 26.6546 26.1016 26.3633 26.1016H16.8008C16.5101 26.1016 16.2734 25.8387 16.2734 25.5156C16.2734 25.1931 16.5092 24.9306 16.7994 24.9298V24.9298ZM27.7735 16.7266L25.9655 23.7578H17.2238L15.8175 16.7266H27.7735Z" fill="white" stroke="white" stroke-width="0.1"/>
<path d="M16.2734 29.0312C16.2734 30.0005 16.9832 30.7891 17.8555 30.7891C18.7278 30.7891 19.4375 30.0005 19.4375 29.0312C19.4375 28.062 18.7278 27.2734 17.8555 27.2734C16.9832 27.2734 16.2734 28.062 16.2734 29.0312ZM17.8555 28.4453C18.1462 28.4453 18.3828 28.7082 18.3828 29.0312C18.3828 29.3543 18.1462 29.6172 17.8555 29.6172C17.5647 29.6172 17.3281 29.3543 17.3281 29.0312C17.3281 28.7082 17.5647 28.4453 17.8555 28.4453Z" fill="white" stroke="white" stroke-width="0.1"/>
<path d="M23.7266 29.0312C23.7266 30.0005 24.4363 30.7891 25.3086 30.7891C26.1809 30.7891 26.8906 30.0005 26.8906 29.0312C26.8906 28.062 26.1809 27.2734 25.3086 27.2734C24.4363 27.2734 23.7266 28.062 23.7266 29.0312ZM25.3086 28.4453C25.5993 28.4453 25.8359 28.7082 25.8359 29.0312C25.8359 29.3543 25.5993 29.6172 25.3086 29.6172C25.0179 29.6172 24.7813 29.3543 24.7813 29.0312C24.7813 28.7082 25.0179 28.4453 25.3086 28.4453Z" fill="white" stroke="white" stroke-width="0.1"/>
</svg>
