<svg width="20" height="20" viewBox="0 0 20 20" fill="none" xmlns="http://www.w3.org/2000/svg">
<path d="M9.99999 0C4.47326 0 0 4.47251 0 10C0 11.754 0.457458 13.4671 1.32614 14.978L0.0376892 18.9792C-0.052185 19.2581 0.0216675 19.5639 0.228882 19.7711C0.434112 19.9764 0.739135 20.053 1.02081 19.9623L5.02197 18.6739C6.53289 19.5425 8.246 20 9.99999 20C15.5267 20 20 15.5275 20 10C20 4.47327 15.5275 0 9.99999 0ZM9.99999 18.4375C8.41568 18.4375 6.87133 17.9955 5.5339 17.1591C5.34149 17.0389 5.10254 17.0064 4.88022 17.0779L1.99188 18.0081L2.92206 15.1198C2.99255 14.9007 2.9628 14.6614 2.84073 14.4661C2.00455 13.1287 1.5625 11.5843 1.5625 10C1.5625 5.3476 5.34759 1.5625 9.99999 1.5625C14.6524 1.5625 18.4375 5.3476 18.4375 10C18.4375 14.6524 14.6524 18.4375 9.99999 18.4375ZM10.9766 10C10.9766 10.5392 10.5394 10.9766 9.99999 10.9766C9.4606 10.9766 9.02343 10.5392 9.02343 10C9.02343 9.46061 9.4606 9.02344 9.99999 9.02344C10.5394 9.02344 10.9766 9.46061 10.9766 10ZM14.8828 10C14.8828 10.5392 14.4456 10.9766 13.9062 10.9766C13.3668 10.9766 12.9297 10.5392 12.9297 10C12.9297 9.46061 13.3668 9.02344 13.9062 9.02344C14.4456 9.02344 14.8828 9.46061 14.8828 10ZM7.07031 10C7.07031 10.5392 6.63314 10.9766 6.09375 10.9766C5.5545 10.9766 5.11718 10.5392 5.11718 10C5.11718 9.46061 5.5545 9.02344 6.09375 9.02344C6.63314 9.02344 7.07031 9.46061 7.07031 10Z" fill="#EE732C"/>
</svg>
