<svg width="33" height="33" viewBox="0 0 33 33" fill="none" xmlns="http://www.w3.org/2000/svg">
<path d="M16.5 32.5C25.3366 32.5 32.5 25.3366 32.5 16.5C32.5 7.66344 25.3366 0.5 16.5 0.5C7.66344 0.5 0.5 7.66344 0.5 16.5C0.5 25.3366 7.66344 32.5 16.5 32.5Z" fill="#157C0E"/>
<path d="M13.2763 23.7135C12.8524 23.7134 12.4458 23.5449 12.1461 23.2451L8.94876 20.0478C8.65755 19.7463 8.49642 19.3425 8.50006 18.9233C8.5037 18.5041 8.67183 18.1032 8.96824 17.8068C9.26464 17.5104 9.6656 17.3422 10.0848 17.3386C10.5039 17.335 10.9077 17.4961 11.2093 17.7873L13.186 19.764L21.6541 9.88518C21.7881 9.718 21.9544 9.57947 22.143 9.47782C22.3316 9.37617 22.5388 9.31348 22.7521 9.29348C22.9654 9.27348 23.1806 9.29657 23.3849 9.36138C23.5891 9.42619 23.7782 9.53139 23.941 9.67074C24.1038 9.81009 24.2369 9.98075 24.3324 10.1726C24.4279 10.3644 24.4839 10.5734 24.497 10.7873C24.5101 11.0012 24.4801 11.2155 24.4087 11.4175C24.3374 11.6196 24.2261 11.8052 24.0816 11.9634L14.4897 23.154C14.341 23.3306 14.1552 23.4724 13.9454 23.5691C13.7357 23.6658 13.5073 23.7151 13.2763 23.7135Z" fill="white"/>
</svg>
