<svg width="16" height="15" viewBox="0 0 16 15" fill="none" xmlns="http://www.w3.org/2000/svg">
<path d="M15.5 7.5C15.5 3.35744 12.1426 0 8 0C3.85744 0 0.5 3.35744 0.5 7.5C0.5 11.2442 3.24219 14.3467 6.82812 14.9092V9.66797H4.92381V7.5H6.82812V5.84766C6.82812 3.96825 7.94728 2.92969 9.66113 2.92969C10.4814 2.92969 11.3398 3.07617 11.3398 3.07617V4.92188H10.3936C9.46191 4.92188 9.17188 5.5005 9.17188 6.09375V7.5H11.2519L10.9194 9.66797H9.17188V14.9092C12.7578 14.3467 15.5 11.2442 15.5 7.5Z" fill="#1877F2"/>
<path d="M10.9195 9.66797L11.252 7.5H9.17189V6.09375C9.17189 5.5005 9.46192 4.92188 10.3936 4.92188H11.3399V3.07617C11.3399 3.07617 10.4815 2.92969 9.66114 2.92969C7.9473 2.92969 6.82814 3.96825 6.82814 5.84766V7.5H4.92383V9.66797H6.82814V14.9092C7.21045 14.9692 7.60158 15 8.00002 15C8.39845 15 8.78958 14.9692 9.17189 14.9092V9.66797H10.9195Z" fill="white"/>
</svg>
