<svg width="44" height="47" viewBox="0 0 44 47" fill="none" xmlns="http://www.w3.org/2000/svg">
<path fill-rule="evenodd" clip-rule="evenodd" d="M16.9187 42.6034C13.0265 41.8656 8.9978 41.6617 5.09203 41.4925C4.25102 41.4588 3.52408 42.0885 3.52968 42.8918C3.47585 43.7004 4.13057 44.3826 4.91211 44.4211C8.69743 44.582 12.604 44.7659 16.3146 45.4792C17.1057 45.635 17.9021 45.1165 18.0768 44.3221C18.2516 43.5282 17.7099 42.7599 16.9187 42.6034Z" fill="#FFE1B9" fill-opacity="0.6"/>
<path fill-rule="evenodd" clip-rule="evenodd" d="M27.2462 26.8018C20.6195 21.1668 13.284 16.3843 6.76294 10.575C6.17966 10.0303 5.22539 10.0764 4.67535 10.674C4.12535 11.2723 4.14146 12.2016 4.78423 12.7414C11.3068 18.5689 18.6437 23.3688 25.2718 29.022C25.9135 29.5478 26.8656 29.4784 27.4143 28.865C27.9037 28.257 27.8878 27.3277 27.2462 26.8018Z" fill="#FFE1B9" fill-opacity="0.6"/>
<path fill-rule="evenodd" clip-rule="evenodd" d="M36.8034 2.27042C37.2681 5.76698 37.7324 9.26357 38.1971 12.7607C38.2626 13.565 39.0274 14.1277 39.8569 14.0207C40.6864 13.9132 41.2251 13.1801 41.1595 12.3753C40.6943 8.87289 40.2296 5.37105 39.7645 1.86923C39.6395 1.06984 38.8753 0.511142 38.0461 0.622797C37.2764 0.729602 36.6784 1.47161 36.8034 2.27042Z" fill="#FFE1B9" fill-opacity="0.6"/>
</svg>
