<svg width="44" height="44" viewBox="0 0 44 44" fill="none" xmlns="http://www.w3.org/2000/svg">
<path d="M13.8182 17.1667H30.1818C30.3988 17.1667 30.6069 17.0789 30.7604 16.9226C30.9138 16.7663 31 16.5543 31 16.3333C31 16.1123 30.9138 15.9004 30.7604 15.7441C30.6069 15.5878 30.3988 15.5 30.1818 15.5H13.8182C13.6012 15.5 13.3931 15.5878 13.2396 15.7441C13.0862 15.9004 13 16.1123 13 16.3333C13 16.5543 13.0862 16.7663 13.2396 16.9226C13.3931 17.0789 13.6012 17.1667 13.8182 17.1667Z" fill="white"/>
<path d="M30.1818 21.1666H13.8182C13.6012 21.1666 13.3931 21.2544 13.2396 21.4107C13.0862 21.567 13 21.7789 13 22C13 22.221 13.0862 22.4329 13.2396 22.5892C13.3931 22.7455 13.6012 22.8333 13.8182 22.8333H30.1818C30.3988 22.8333 30.6069 22.7455 30.7604 22.5892C30.9138 22.4329 31 22.221 31 22C31 21.7789 30.9138 21.567 30.7604 21.4107C30.6069 21.2544 30.3988 21.1666 30.1818 21.1666Z" fill="white"/>
<path d="M30.1818 26.8334H13.8182C13.6012 26.8334 13.3931 26.9212 13.2396 27.0775C13.0862 27.2337 13 27.4457 13 27.6667C13 27.8877 13.0862 28.0997 13.2396 28.256C13.3931 28.4123 13.6012 28.5001 13.8182 28.5001H30.1818C30.3988 28.5001 30.6069 28.4123 30.7604 28.256C30.9138 28.0997 31 27.8877 31 27.6667C31 27.4457 30.9138 27.2337 30.7604 27.0775C30.6069 26.9212 30.3988 26.8334 30.1818 26.8334Z" fill="white"/>
</svg>
