<svg width="14" height="14" viewBox="0 0 14 14" fill="none" xmlns="http://www.w3.org/2000/svg">
<path d="M13.3589 12.6781L9.86383 9.1829C10.6301 8.26411 11.0926 7.08352 11.0926 5.79628C11.0926 2.87587 8.7167 0.5 5.79628 0.5C2.87586 0.5 0.5 2.87587 0.5 5.79628C0.5 8.7167 2.87586 11.0926 5.79628 11.0926C7.08352 11.0926 8.26411 10.6301 9.1829 9.86383L12.6781 13.359C12.7721 13.453 12.8954 13.5001 13.0185 13.5001C13.1416 13.5001 13.2649 13.453 13.3589 13.359C13.547 13.1709 13.547 12.8661 13.3589 12.6781V12.6781ZM1.46296 5.79628C1.46296 3.40694 3.4067 1.46296 5.79628 1.46296C8.18587 1.46296 10.1296 3.40694 10.1296 5.79628C10.1296 8.18563 8.18587 10.1296 5.79628 10.1296C3.4067 10.1296 1.46296 8.18563 1.46296 5.79628Z" fill="#EE732C" stroke="#EE732C" stroke-width="0.5"/>
</svg>
