<svg width="30" height="31" viewBox="0 0 30 31" fill="none" xmlns="http://www.w3.org/2000/svg">
<path d="M15 30.5C12.0333 30.5 9.13319 29.6203 6.66645 27.972C4.19972 26.3238 2.27713 23.9811 1.14181 21.2403C0.00649941 18.4994 -0.290551 15.4834 0.288227 12.5736C0.867006 9.66393 2.29562 6.99119 4.3934 4.8934C6.49119 2.79562 9.16393 1.36701 12.0736 0.788227C14.9834 0.209449 17.9994 0.506499 20.7403 1.64181C23.4811 2.77713 25.8238 4.69972 27.472 7.16645C29.1203 9.63319 30 12.5333 30 15.5C30 19.4782 28.4196 23.2936 25.6066 26.1066C22.7936 28.9196 18.9782 30.5 15 30.5ZM15 2.50001C12.4288 2.50001 9.91543 3.26244 7.77759 4.6909C5.63975 6.11936 3.97351 8.14968 2.98957 10.5251C2.00563 12.9006 1.74819 15.5144 2.2498 18.0362C2.75141 20.5579 3.98953 22.8743 5.80762 24.6924C7.6257 26.5105 9.94208 27.7486 12.4638 28.2502C14.9856 28.7518 17.5994 28.4944 19.9749 27.5104C22.3503 26.5265 24.3806 24.8603 25.8091 22.7224C27.2376 20.5846 28 18.0712 28 15.5C28 12.0522 26.6304 8.74559 24.1924 6.30762C21.7544 3.86964 18.4478 2.50001 15 2.50001V2.50001Z" fill="#939494"/>
<path d="M8.77997 13.95C9.64153 13.95 10.34 13.2515 10.34 12.39C10.34 11.5284 9.64153 10.83 8.77997 10.83C7.91841 10.83 7.21997 11.5284 7.21997 12.39C7.21997 13.2515 7.91841 13.95 8.77997 13.95Z" fill="#939494"/>
<path d="M21.22 13.95C22.0816 13.95 22.78 13.2515 22.78 12.39C22.78 11.5284 22.0816 10.83 21.22 10.83C20.3585 10.83 19.66 11.5284 19.66 12.39C19.66 13.2515 20.3585 13.95 21.22 13.95Z" fill="#939494"/>
<path d="M20.5001 18.6809C20.3684 18.6801 20.238 18.7053 20.1161 18.7551C19.9943 18.8049 19.8835 18.8782 19.7901 18.9709C18.5189 20.2398 16.7962 20.9525 15.0001 20.9525C13.2039 20.9525 11.4812 20.2398 10.2101 18.9709C10.1171 18.8771 10.0065 18.8027 9.88464 18.752C9.76278 18.7012 9.63207 18.6751 9.50006 18.6751C9.36805 18.6751 9.23734 18.7012 9.11548 18.752C8.99362 18.8027 8.88302 18.8771 8.79006 18.9709C8.60381 19.1582 8.49927 19.4117 8.49927 19.6759C8.49927 19.94 8.60381 20.1935 8.79006 20.3809C10.4393 22.0235 12.6723 22.9458 15.0001 22.9458C17.3278 22.9458 19.5608 22.0235 21.2101 20.3809C21.3963 20.1935 21.5008 19.94 21.5008 19.6759C21.5008 19.4117 21.3963 19.1582 21.2101 18.9709C21.1166 18.8782 21.0058 18.8049 20.884 18.7551C20.7621 18.7053 20.6317 18.6801 20.5001 18.6809Z" fill="#939494"/>
</svg>
