<svg width="31" height="32" viewBox="0 0 31 32" fill="none" xmlns="http://www.w3.org/2000/svg">
<path d="M15.5 30.5313C12.626 30.5313 9.81653 29.679 7.42688 28.0823C5.03723 26.4856 3.17472 24.2161 2.07488 21.5609C0.975046 18.9056 0.687279 15.9839 1.24797 13.1651C1.80866 10.3463 3.19263 7.7571 5.22486 5.72486C7.2571 3.69263 9.84632 2.30866 12.6651 1.74797C15.4839 1.18728 18.4056 1.47505 21.0609 2.57488C23.7161 3.67472 25.9856 5.53723 27.5823 7.92688C29.179 10.3165 30.0313 13.126 30.0313 16C30.0313 19.8539 28.5003 23.55 25.7752 26.2752C23.05 29.0003 19.3539 30.5313 15.5 30.5313ZM15.5 3.40626C13.0092 3.40626 10.5743 4.14487 8.5033 5.52869C6.43227 6.91251 4.81809 8.87938 3.8649 11.1806C2.91171 13.4818 2.66231 16.014 3.14824 18.4569C3.63418 20.8999 4.83362 23.1439 6.59488 24.9051C8.35615 26.6664 10.6001 27.8659 13.0431 28.3518C15.486 28.8377 18.0182 28.5883 20.3194 27.6351C22.6206 26.6819 24.5875 25.0678 25.9713 22.9967C27.3552 20.9257 28.0938 18.4908 28.0938 16C28.0938 12.6599 26.7669 9.45667 24.4051 7.09488C22.0434 4.7331 18.8401 3.40626 15.5 3.40626V3.40626Z" fill="#939494"/>
<path d="M9.47438 14.4985C10.309 14.4985 10.9856 13.8218 10.9856 12.9872C10.9856 12.1526 10.309 11.476 9.47438 11.476C8.63974 11.476 7.96313 12.1526 7.96313 12.9872C7.96313 13.8218 8.63974 14.4985 9.47438 14.4985Z" fill="#939494"/>
<path d="M21.5257 14.4985C22.3603 14.4985 23.0369 13.8218 23.0369 12.9872C23.0369 12.1526 22.3603 11.476 21.5257 11.476C20.691 11.476 20.0144 12.1526 20.0144 12.9872C20.0144 13.8218 20.691 14.4985 21.5257 14.4985Z" fill="#939494"/>
<path d="M20.8282 22.2387C20.7007 22.2395 20.5743 22.215 20.4563 22.1668C20.3382 22.1186 20.2309 22.0476 20.1403 21.9578C18.9089 20.7285 17.24 20.0381 15.5 20.0381C13.76 20.0381 12.0912 20.7285 10.8597 21.9578C10.7697 22.0486 10.6625 22.1207 10.5445 22.1698C10.4264 22.219 10.2998 22.2443 10.1719 22.2443C10.044 22.2443 9.9174 22.219 9.79935 22.1698C9.6813 22.1207 9.57416 22.0486 9.4841 21.9578C9.30367 21.7763 9.20239 21.5307 9.20239 21.2748C9.20239 21.0189 9.30367 20.7734 9.4841 20.5918C11.0818 19.0005 13.245 18.1071 15.5 18.1071C17.7551 18.1071 19.9182 19.0005 21.516 20.5918C21.6964 20.7734 21.7977 21.0189 21.7977 21.2748C21.7977 21.5307 21.6964 21.7763 21.516 21.9578C21.4255 22.0476 21.3181 22.1186 21.2001 22.1668C21.082 22.215 20.9557 22.2395 20.8282 22.2387Z" fill="#939494"/>
</svg>
