<svg width="31" height="32" viewBox="0 0 31 32" fill="none" xmlns="http://www.w3.org/2000/svg">
<path d="M21.6044 19.0225H9.39569C8.8038 19.0225 8.32397 19.5023 8.32397 20.0942V20.096C8.32397 20.6878 8.8038 21.1677 9.39569 21.1677H21.6044C22.1963 21.1677 22.6761 20.6878 22.6761 20.096V20.0942C22.6761 19.5023 22.1963 19.0225 21.6044 19.0225Z" fill="#939494"/>
<path d="M15.9844 30.5313C13.1104 30.5313 10.3009 29.679 7.91126 28.0823C5.5216 26.4856 3.65909 24.2161 2.55926 21.5609C1.45942 18.9056 1.17165 15.9839 1.73235 13.1651C2.29304 10.3463 3.67701 7.7571 5.70924 5.72486C7.74147 3.69263 10.3307 2.30866 13.1495 1.74797C15.9683 1.18728 18.89 1.47505 21.5453 2.57488C24.2005 3.67472 26.47 5.53723 28.0667 7.92688C29.6634 10.3165 30.5156 13.126 30.5156 16C30.5156 19.8539 28.9847 23.55 26.2595 26.2752C23.5344 29.0003 19.8383 30.5313 15.9844 30.5313ZM15.9844 3.40626C13.4936 3.40626 11.0587 4.14487 8.98767 5.52869C6.91664 6.91251 5.30247 8.87938 4.34928 11.1806C3.39608 13.4818 3.14669 16.014 3.63262 18.4569C4.11855 20.8999 5.31799 23.1439 7.07926 24.9051C8.84053 26.6664 11.0845 27.8659 13.5275 28.3518C15.9704 28.8377 18.5026 28.5883 20.8038 27.6351C23.105 26.6819 25.0719 25.0678 26.4557 22.9967C27.8395 20.9257 28.5781 18.4908 28.5781 16C28.5781 12.6599 27.2513 9.45667 24.8895 7.09488C22.5277 4.7331 19.3245 3.40626 15.9844 3.40626V3.40626Z" fill="#939494"/>
<path d="M9.95876 14.4985C10.7934 14.4985 11.47 13.8218 11.47 12.9872C11.47 12.1526 10.7934 11.476 9.95876 11.476C9.12412 11.476 8.44751 12.1526 8.44751 12.9872C8.44751 13.8218 9.12412 14.4985 9.95876 14.4985Z" fill="#939494"/>
<path d="M21.0413 14.4985C21.8759 14.4985 22.5525 13.8218 22.5525 12.9872C22.5525 12.1526 21.8759 11.476 21.0413 11.476C20.2066 11.476 19.53 12.1526 19.53 12.9872C19.53 13.8218 20.2066 14.4985 21.0413 14.4985Z" fill="#939494"/>
</svg>
