<svg width="30" height="31" viewBox="0 0 30 31" fill="none" xmlns="http://www.w3.org/2000/svg">
<path d="M15 30.5C12.0333 30.5 9.13319 29.6203 6.66645 27.972C4.19972 26.3238 2.27713 23.9811 1.14181 21.2403C0.00649941 18.4994 -0.290551 15.4834 0.288227 12.5736C0.867006 9.66393 2.29562 6.99119 4.3934 4.8934C6.49119 2.79562 9.16393 1.36701 12.0736 0.788227C14.9834 0.209449 17.9994 0.506499 20.7403 1.64181C23.4811 2.77713 25.8238 4.69972 27.472 7.16645C29.1203 9.63319 30 12.5333 30 15.5C30 19.4782 28.4196 23.2936 25.6066 26.1066C22.7936 28.9196 18.9782 30.5 15 30.5ZM15 2.50001C12.4288 2.50001 9.91543 3.26244 7.77759 4.6909C5.63975 6.11936 3.97351 8.14968 2.98957 10.5251C2.00563 12.9006 1.74819 15.5144 2.2498 18.0362C2.75141 20.5579 3.98953 22.8743 5.80762 24.6924C7.6257 26.5105 9.94208 27.7486 12.4638 28.2502C14.9856 28.7518 17.5994 28.4944 19.9749 27.5104C22.3503 26.5265 24.3806 24.8603 25.8091 22.7224C27.2376 20.5846 28 18.0712 28 15.5C28 12.0522 26.6304 8.74559 24.1924 6.30762C21.7544 3.86964 18.4478 2.50001 15 2.50001V2.50001Z" fill="#939494"/>
<path d="M9.49995 21.9401C9.63155 21.9409 9.76202 21.9156 9.88385 21.8659C10.0057 21.8161 10.1165 21.7428 10.2099 21.6501C11.4811 20.3812 13.2038 19.6685 14.9999 19.6685C16.7961 19.6685 18.5188 20.3812 19.7899 21.6501C19.8829 21.7438 19.9935 21.8182 20.1154 21.869C20.2372 21.9198 20.3679 21.9459 20.4999 21.9459C20.632 21.9459 20.7627 21.9198 20.8845 21.869C21.0064 21.8182 21.117 21.7438 21.2099 21.6501C21.3962 21.4628 21.5007 21.2093 21.5007 20.9451C21.5007 20.6809 21.3962 20.4275 21.2099 20.2401C19.5607 18.5975 17.3277 17.6752 14.9999 17.6752C12.6722 17.6752 10.4392 18.5975 8.78995 20.2401C8.6037 20.4275 8.49915 20.6809 8.49915 20.9451C8.49915 21.2093 8.6037 21.4628 8.78995 21.6501C8.88339 21.7428 8.9942 21.8161 9.11604 21.8659C9.23788 21.9156 9.36834 21.9409 9.49995 21.9401Z" fill="#939494"/>
<path d="M8.99996 12.5C8.97874 12.942 9.13399 13.3744 9.43155 13.7019C9.7291 14.0295 10.1446 14.2254 10.5866 14.2467C11.0287 14.2679 11.461 14.1126 11.7886 13.8151C12.1161 13.5175 12.3121 13.102 12.3333 12.66L12.82 12.8067C12.9932 12.8562 13.1791 12.8348 13.3366 12.7473C13.4941 12.6598 13.6105 12.5133 13.66 12.34C13.7095 12.1667 13.6881 11.9809 13.6006 11.8234C13.5131 11.6658 13.3666 11.5495 13.1933 11.5L6.52663 9.5C6.34982 9.44873 6.15988 9.46979 5.9986 9.55856C5.83732 9.64733 5.7179 9.79653 5.66663 9.97334C5.61535 10.1501 5.63642 10.3401 5.72518 10.5014C5.81395 10.6626 5.96315 10.7821 6.13996 10.8333L9.19996 11.7467C9.0763 11.9791 9.00787 12.2369 8.99996 12.5Z" fill="#939494"/>
<path d="M24.3334 9.97318C24.3114 9.88356 24.2711 9.79947 24.215 9.72623C24.1589 9.65299 24.0881 9.5922 24.0073 9.54771C23.9265 9.50321 23.8373 9.47599 23.7454 9.46775C23.6534 9.45951 23.5608 9.47044 23.4734 9.49985L16.8067 11.4998C16.6299 11.5511 16.4807 11.6705 16.3919 11.8318C16.3032 11.9931 16.2821 12.183 16.3334 12.3598C16.3847 12.5367 16.5041 12.6859 16.6653 12.7746C16.8266 12.8634 17.0166 12.8845 17.1934 12.8332L17.68 12.6865C17.7013 13.1285 17.8972 13.544 18.2248 13.8416C18.5523 14.1392 18.9847 14.2944 19.4267 14.2732C19.8687 14.252 20.2842 14.056 20.5818 13.7285C20.8793 13.4009 21.0346 12.9685 21.0134 12.5265C21.0096 12.2543 20.9411 11.9869 20.8134 11.7465L23.86 10.8332C23.9497 10.8112 24.0338 10.7709 24.107 10.7148C24.1802 10.6587 24.241 10.5879 24.2855 10.5071C24.33 10.4263 24.3572 10.3371 24.3655 10.2452C24.3737 10.1533 24.3628 10.0606 24.3334 9.97318V9.97318Z" fill="#939494"/>
</svg>
