<svg width="30" height="31" viewBox="0 0 30 31" fill="none" xmlns="http://www.w3.org/2000/svg">
<g clip-path="url(#clip0_594_5321)">
<path d="M25.6066 4.89342C22.7735 2.06029 19.0066 0.5 15 0.5C10.9934 0.5 7.22648 2.06029 4.39342 4.89342C1.56023 7.72648 0 11.4934 0 15.5C0 19.5066 1.56023 23.2735 4.39342 26.1066C7.22648 28.9397 10.9934 30.5 15 30.5C19.0066 30.5 22.7735 28.9397 25.6066 26.1066C28.4398 23.2735 30 19.5066 30 15.5C30 11.4934 28.4398 7.72648 25.6066 4.89342ZM15 28.7143C7.71363 28.7143 1.7857 22.7864 1.7857 15.5C1.7857 8.21363 7.71363 2.2857 15 2.2857C22.2864 2.2857 28.2143 8.21363 28.2143 15.5C28.2143 22.7864 22.2864 28.7143 15 28.7143Z" fill="#939494"/>
<path d="M11.7552 11.5389C10.2931 10.0767 7.91404 10.0768 6.45195 11.5389C6.10326 11.8875 6.10326 12.4529 6.45195 12.8016C6.8007 13.1502 7.36607 13.1502 7.7147 12.8016C8.48064 12.0357 9.72682 12.0357 10.4926 12.8016C10.667 12.9759 10.8955 13.0631 11.1239 13.0631C11.3524 13.0631 11.581 12.9759 11.7552 12.8016C12.1039 12.4529 12.1039 11.8876 11.7552 11.5389Z" fill="#939494"/>
<path d="M23.5479 11.5389C22.0859 10.0768 19.7068 10.0767 18.2447 11.5389C17.896 11.8875 17.896 12.4529 18.2447 12.8016C18.5934 13.1502 19.1588 13.1502 19.5074 12.8016C20.2733 12.0357 21.5194 12.0356 22.2854 12.8016C22.4597 12.9759 22.6882 13.0631 22.9167 13.0631C23.1451 13.0631 23.3737 12.9759 23.5479 12.8016C23.8966 12.4529 23.8966 11.8876 23.5479 11.5389Z" fill="#939494"/>
<path d="M22.9166 16.1548H7.08328C6.59016 16.1548 6.19043 16.5546 6.19043 17.0476C6.19043 21.9052 10.1424 25.8571 14.9999 25.8571C19.8575 25.8571 23.8095 21.9052 23.8095 17.0476C23.8095 16.5545 23.4097 16.1548 22.9166 16.1548ZM14.9999 24.0714C11.4294 24.0714 8.47248 21.3935 8.03262 17.9405H21.9673C21.5274 21.3935 18.5705 24.0714 14.9999 24.0714Z" fill="#939494"/>
</g>
<defs>
<clipPath id="clip0_594_5321">
<rect width="30" height="30" fill="white" transform="translate(0 0.5)"/>
</clipPath>
</defs>
</svg>
