<?xml version="1.0" encoding="utf-8"?>
<!-- Generator: Adobe Illustrator 24.0.0, SVG Export Plug-In . SVG Version: 6.00 Build 0)  -->
<svg version="1.1" id="Layer_1" xmlns="http://www.w3.org/2000/svg" xmlns:xlink="http://www.w3.org/1999/xlink" x="0px" y="0px"
	 viewBox="0 0 13 23" style="enable-background:new 0 0 13 23;" xml:space="preserve">
<style type="text/css">
	.st0{fill-rule:evenodd;clip-rule:evenodd;fill:#FFE1B9;}
	.st1{fill-rule:evenodd;clip-rule:evenodd;fill:#FFCCA8;}
	.st2{fill-rule:evenodd;clip-rule:evenodd;fill:#EE732C;}
</style>
<path class="st0" d="M1.7,0.3c-0.2-0.2-0.4-0.2-0.6,0c-0.2,0.2-0.2,0.4,0,0.6L6.2,6c0.1,0.1,0.2,0.1,0.3,0.1c0.1,0,0.2,0,0.3-0.1
	l5.1-5.1c0.1-0.1,0.1-0.2,0.1-0.3c0-0.1,0-0.2-0.1-0.3c-0.2-0.2-0.4-0.2-0.6,0L6.5,5.1L1.7,0.3C1.7,0.3,1.7,0.3,1.7,0.3z"/>
<path class="st1" d="M1.7,8.3c-0.2-0.2-0.4-0.2-0.6,0c-0.2,0.2-0.2,0.4,0,0.6L6.2,14c0.1,0.1,0.2,0.1,0.3,0.1c0.1,0,0.2,0,0.3-0.1
	l5.1-5.1c0.1-0.1,0.1-0.2,0.1-0.3c0-0.1,0-0.2-0.1-0.3c-0.2-0.2-0.4-0.2-0.6,0l-4.8,4.8L1.7,8.3C1.7,8.3,1.7,8.3,1.7,8.3z"/>
<path class="st2" d="M1.7,16.3c-0.2-0.2-0.4-0.2-0.6,0c-0.2,0.2-0.2,0.4,0,0.6L6.2,22c0.1,0.1,0.2,0.1,0.3,0.1c0.1,0,0.2,0,0.3-0.1
	l5.1-5.1c0,0,0,0,0,0c0.1-0.1,0.1-0.2,0.1-0.3c0-0.1,0-0.2-0.1-0.3c-0.2-0.2-0.4-0.2-0.6,0l-4.8,4.8L1.7,16.3
	C1.7,16.3,1.7,16.3,1.7,16.3z"/>
</svg>
