<svg width="16" height="15" viewBox="0 0 16 15" fill="none" xmlns="http://www.w3.org/2000/svg">
<path d="M0.5 7.5C0.5 3.35786 3.85786 0 8 0C12.1421 0 15.5 3.35786 15.5 7.5C15.5 11.6421 12.1421 15 8 15C3.85786 15 0.5 11.6421 0.5 7.5Z" fill="#55ACEE"/>
<path d="M7.77537 6.09609L7.79111 6.35561L7.52881 6.32383C6.57402 6.20202 5.73989 5.78891 5.03167 5.0951L4.68543 4.75084L4.59624 5.00506C4.40738 5.57176 4.52804 6.17024 4.9215 6.57276C5.13134 6.7952 5.08413 6.82698 4.72215 6.69457C4.59624 6.6522 4.48607 6.62042 4.47558 6.63631C4.43886 6.67339 4.56477 7.15535 4.66444 7.34601C4.80084 7.61083 5.07888 7.87034 5.38316 8.02394L5.64021 8.14575L5.33594 8.15105C5.04216 8.15105 5.03167 8.15634 5.06314 8.26756C5.16807 8.61182 5.58251 8.97726 6.04416 9.13615L6.36942 9.24737L6.08613 9.41685C5.66645 9.66048 5.17331 9.79818 4.68018 9.80878C4.44411 9.81407 4.25 9.83526 4.25 9.85115C4.25 9.90411 4.89002 10.2007 5.2625 10.3172C6.37991 10.6615 7.70718 10.5132 8.70393 9.92529C9.41216 9.50689 10.1204 8.67538 10.4509 7.87034C10.6292 7.44135 10.8076 6.6575 10.8076 6.28146C10.8076 6.03784 10.8234 6.00606 11.1171 5.71476C11.2903 5.54528 11.4529 5.35991 11.4844 5.30695C11.5368 5.20632 11.5316 5.20632 11.264 5.29636C10.8181 5.45525 10.7552 5.43406 10.9755 5.19573C11.1381 5.02625 11.3322 4.71907 11.3322 4.62903C11.3322 4.61314 11.2535 4.63962 11.1644 4.68729C11.0699 4.74025 10.8601 4.81969 10.7027 4.86736L10.4194 4.9574L10.1623 4.78262C10.0207 4.68729 9.82135 4.58136 9.71643 4.54958C9.44888 4.47544 9.03968 4.48603 8.79836 4.57077C8.1426 4.8091 7.72816 5.42347 7.77537 6.09609Z" fill="white"/>
</svg>
