<svg width="16" height="15" viewBox="0 0 16 15" fill="none" xmlns="http://www.w3.org/2000/svg">
<path d="M0.5 7.5C0.5 3.35786 3.85786 0 8 0C12.1421 0 15.5 3.35786 15.5 7.5C15.5 11.6421 12.1421 15 8 15C3.85786 15 0.5 11.6421 0.5 7.5Z" fill="#FF0000"/>
<path d="M11.8328 5.64788C11.7408 5.29444 11.4697 5.01612 11.1255 4.92167C10.5017 4.75 8 4.75 8 4.75C8 4.75 5.49832 4.75 4.87445 4.92167C4.53023 5.01612 4.25914 5.29444 4.16714 5.64788C4 6.28845 4 7.625 4 7.625C4 7.625 4 8.9615 4.16714 9.60212C4.25914 9.95556 4.53023 10.2339 4.87445 10.3284C5.49832 10.5 8 10.5 8 10.5C8 10.5 10.5017 10.5 11.1255 10.3284C11.4697 10.2339 11.7408 9.95556 11.8328 9.60212C12 8.9615 12 7.625 12 7.625C12 7.625 12 6.28845 11.8328 5.64788" fill="white"/>
<path d="M7.25 9V6.5L9.25 7.75005L7.25 9Z" fill="#FF0000"/>
</svg>
